<?xml version="1.0" encoding="UTF-8" standalone="no"?>
<!-- Created with Inkscape (http://www.inkscape.org/) -->

<svg
   xmlns:dc="http://purl.org/dc/elements/1.1/"
   xmlns:cc="http://creativecommons.org/ns#"
   xmlns:rdf="http://www.w3.org/1999/02/22-rdf-syntax-ns#"
   xmlns:svg="http://www.w3.org/2000/svg"
   xmlns="http://www.w3.org/2000/svg"
   xmlns:sodipodi="http://sodipodi.sourceforge.net/DTD/sodipodi-0.dtd"
   xmlns:inkscape="http://www.inkscape.org/namespaces/inkscape"
   id="svg2"
   version="1.1"
   inkscape:version="0.92.2 (5c3e80d, 2017-08-06)"
   xml:space="preserve"
   width="155.7"
   height="182.5"
   viewBox="0 0 155.7 182.5"
   sodipodi:docname="inkscape_template.svg"><metadata
     id="metadata8"><rdf:RDF><cc:Work
         rdf:about=""><dc:format>image/svg+xml</dc:format><dc:type
           rdf:resource="http://purl.org/dc/dcmitype/StillImage" /><dc:title /></cc:Work></rdf:RDF></metadata><defs
     id="defs6"><marker
       inkscape:stockid="DotM"
       orient="auto"
       refY="0.0"
       refX="0.0"
       id="marker1958"
       style="overflow:visible"
       inkscape:isstock="true"><path
         id="path1956"
         d="M -2.5,-1.0 C -2.5,1.7600000 -4.7400000,4.0 -7.5,4.0 C -10.260000,4.0 -12.5,1.7600000 -12.5,-1.0 C -12.5,-3.7600000 -10.260000,-6.0 -7.5,-6.0 C -4.7400000,-6.0 -2.5,-3.7600000 -2.5,-1.0 z "
         style="fill-rule:evenodd;stroke:#ffffff;stroke-width:1pt;stroke-opacity:1;fill:#ffffff;fill-opacity:1"
         transform="scale(0.4) translate(7.4, 1)" /></marker><marker
       inkscape:isstock="true"
       style="overflow:visible"
       id="marker1870"
       refX="0.0"
       refY="0.0"
       orient="auto"
       inkscape:stockid="DotM"
       inkscape:collect="always"><path
         transform="scale(0.4) translate(7.4, 1)"
         style="fill-rule:evenodd;stroke:#ffffff;stroke-width:1pt;stroke-opacity:1;fill:#ffffff;fill-opacity:1"
         d="M -2.5,-1.0 C -2.5,1.7600000 -4.7400000,4.0 -7.5,4.0 C -10.260000,4.0 -12.5,1.7600000 -12.5,-1.0 C -12.5,-3.7600000 -10.260000,-6.0 -7.5,-6.0 C -4.7400000,-6.0 -2.5,-3.7600000 -2.5,-1.0 z "
         id="path1868" /></marker><marker
       inkscape:stockid="DotM"
       orient="auto"
       refY="0.0"
       refX="0.0"
       id="marker1584"
       style="overflow:visible"
       inkscape:isstock="true"
       inkscape:collect="always"><path
         id="path1582"
         d="M -2.5,-1.0 C -2.5,1.7600000 -4.7400000,4.0 -7.5,4.0 C -10.260000,4.0 -12.5,1.7600000 -12.5,-1.0 C -12.5,-3.7600000 -10.260000,-6.0 -7.5,-6.0 C -4.7400000,-6.0 -2.5,-3.7600000 -2.5,-1.0 z "
         style="fill-rule:evenodd;stroke:#ffffff;stroke-width:1pt;stroke-opacity:1;fill:#ffffff;fill-opacity:1"
         transform="scale(0.4) translate(7.4, 1)" /></marker><marker
       inkscape:stockid="DotM"
       orient="auto"
       refY="0.0"
       refX="0.0"
       id="marker1508"
       style="overflow:visible"
       inkscape:isstock="true"><path
         id="path1506"
         d="M -2.5,-1.0 C -2.5,1.7600000 -4.7400000,4.0 -7.5,4.0 C -10.260000,4.0 -12.5,1.7600000 -12.5,-1.0 C -12.5,-3.7600000 -10.260000,-6.0 -7.5,-6.0 C -4.7400000,-6.0 -2.5,-3.7600000 -2.5,-1.0 z "
         style="fill-rule:evenodd;stroke:#ffffff;stroke-width:1pt;stroke-opacity:1;fill:#ffffff;fill-opacity:1"
         transform="scale(0.4) translate(7.4, 1)" /></marker><marker
       inkscape:isstock="true"
       style="overflow:visible"
       id="marker1432"
       refX="0.0"
       refY="0.0"
       orient="auto"
       inkscape:stockid="DotM"
       inkscape:collect="always"><path
         transform="scale(0.4) translate(7.4, 1)"
         style="fill-rule:evenodd;stroke:#ffffff;stroke-width:1pt;stroke-opacity:1;fill:#ffffff;fill-opacity:1"
         d="M -2.5,-1.0 C -2.5,1.7600000 -4.7400000,4.0 -7.5,4.0 C -10.260000,4.0 -12.5,1.7600000 -12.5,-1.0 C -12.5,-3.7600000 -10.260000,-6.0 -7.5,-6.0 C -4.7400000,-6.0 -2.5,-3.7600000 -2.5,-1.0 z "
         id="path1430" /></marker><marker
       inkscape:stockid="DotM"
       orient="auto"
       refY="0.0"
       refX="0.0"
       id="DotM"
       style="overflow:visible"
       inkscape:isstock="true"
       inkscape:collect="always"><path
         id="path1024"
         d="M -2.5,-1.0 C -2.5,1.7600000 -4.7400000,4.0 -7.5,4.0 C -10.260000,4.0 -12.5,1.7600000 -12.5,-1.0 C -12.5,-3.7600000 -10.260000,-6.0 -7.5,-6.0 C -4.7400000,-6.0 -2.5,-3.7600000 -2.5,-1.0 z "
         style="fill-rule:evenodd;stroke:#ffffff;stroke-width:1pt;stroke-opacity:1;fill:#ffffff;fill-opacity:1"
         transform="scale(0.4) translate(7.4, 1)" /></marker><marker
       inkscape:stockid="StopM"
       orient="auto"
       refY="0.0"
       refX="0.0"
       id="StopM"
       style="overflow:visible"
       inkscape:isstock="true"><path
         id="path1132"
         d="M 0.0,5.65 L 0.0,-5.65"
         style="fill:none;fill-opacity:0.75;fill-rule:evenodd;stroke:#000000;stroke-width:1pt;stroke-opacity:1"
         transform="scale(0.4)" /></marker><marker
       inkscape:stockid="StopL"
       orient="auto"
       refY="0.0"
       refX="0.0"
       id="StopL"
       style="overflow:visible"
       inkscape:isstock="true"><path
         id="path1129"
         d="M 0.0,5.65 L 0.0,-5.65"
         style="fill:none;fill-opacity:0.75;fill-rule:evenodd;stroke:#000000;stroke-width:1pt;stroke-opacity:1"
         transform="scale(0.8)" /></marker><marker
       inkscape:stockid="Arrow2Send"
       orient="auto"
       refY="0.0"
       refX="0.0"
       id="Arrow2Send"
       style="overflow:visible;"
       inkscape:isstock="true"><path
         id="path993"
         style="fill-rule:evenodd;stroke-width:0.625;stroke-linejoin:round;stroke:#000000;stroke-opacity:1;fill:#000000;fill-opacity:1"
         d="M 8.7185878,4.0337352 L -2.2072895,0.016013256 L 8.7185884,-4.0017078 C 6.9730900,-1.6296469 6.9831476,1.6157441 8.7185878,4.0337352 z "
         transform="scale(0.3) rotate(180) translate(-2.3,0)" /></marker><marker
       inkscape:stockid="Arrow1Sstart"
       orient="auto"
       refY="0.0"
       refX="0.0"
       id="Arrow1Sstart"
       style="overflow:visible"
       inkscape:isstock="true"><path
         id="path972"
         d="M 0.0,0.0 L 5.0,-5.0 L -12.5,0.0 L 5.0,5.0 L 0.0,0.0 z "
         style="fill-rule:evenodd;stroke:#000000;stroke-width:1pt;stroke-opacity:1;fill:#000000;fill-opacity:1"
         transform="scale(0.2) translate(6,0)" /></marker><clipPath
       clipPathUnits="userSpaceOnUse"
       id="clipPath16"><path
         d="m 2.422,38.688 0,68.945 59.858,34.478 59.859,-34.478 0,-68.945 L 62.28,4.211 2.422,38.688 Z"
         id="path18"
         inkscape:connector-curvature="0" /></clipPath><radialGradient
       fx="0"
       fy="0"
       cx="0"
       cy="0"
       r="1"
       gradientUnits="userSpaceOnUse"
       gradientTransform="matrix(64.567177,0,0,-64.564835,65.073593,36.61673)"
       spreadMethod="pad"
       id="radialGradient24"><stop
         style="stop-opacity:1;stop-color:#cf8484"
         offset="0"
         id="stop26" /><stop
         style="stop-opacity:1;stop-color:#b02626"
         offset="1"
         id="stop28" /></radialGradient><clipPath
       clipPathUnits="userSpaceOnUse"
       id="clipPath44"><path
         d="m 0,146 124.56,0 0,-146 L 0,0 0,146 Z"
         id="path46"
         inkscape:connector-curvature="0" /></clipPath><clipPath
       clipPathUnits="userSpaceOnUse"
       id="clipPath196"><path
         d="m 79.288,86.078 c -1.013,0 -1.843,-0.83 -1.843,-1.843 l 0,0 c 0,-1.015 0.83,-1.844 1.843,-1.844 l 0,0 10.058,0 c 1.013,0 1.843,0.829 1.843,1.844 l 0,0 c 0,1.013 -0.83,1.843 -1.843,1.843 l 0,0 -10.058,0 z m -15.365,0 c -1.014,0 -1.844,-0.83 -1.844,-1.843 l 0,0 c 0,-1.015 0.83,-1.844 1.844,-1.844 l 0,0 8.964,0 c 1.015,0 1.845,0.829 1.845,1.844 l 0,0 c 0,1.013 -0.83,1.843 -1.845,1.843 l 0,0 -8.964,0 z m -17.551,0 c -1.014,0 -1.843,-0.83 -1.843,-1.843 l 0,0 c 0,-1.015 0.829,-1.844 1.843,-1.844 l 0,0 10.058,0 c 1.013,0 1.843,0.829 1.843,1.844 l 0,0 c 0,1.013 -0.83,1.843 -1.843,1.843 l 0,0 -10.058,0 z m -11.081,0 c -1.014,0 -1.844,-0.83 -1.844,-1.843 l 0,0 c 0,-1.015 0.83,-1.844 1.844,-1.844 l 0,0 4.681,0 c 1.014,0 1.844,0.829 1.844,1.844 l 0,0 c 0,1.013 -0.83,1.843 -1.844,1.843 l 0,0 -4.681,0 z m 42.971,-6.399 c -0.45,0 -0.817,-0.368 -0.817,-0.817 l 0,0 c 0,-0.449 0.367,-0.818 0.817,-0.818 l 0,0 11.987,0 c 0.45,0 0.817,0.369 0.817,0.818 l 0,0 c 0,0.449 -0.367,0.817 -0.817,0.817 l 0,0 -11.987,0 z m -15.038,0 c -0.449,0 -0.817,-0.368 -0.817,-0.817 l 0,0 c 0,-0.449 0.368,-0.818 0.817,-0.818 l 0,0 10.581,0 c 0.449,0 0.817,0.369 0.817,0.818 l 0,0 c 0,0.449 -0.368,0.817 -0.817,0.817 l 0,0 -10.581,0 z m -12.654,0 c -0.449,0 -0.817,-0.368 -0.817,-0.817 l 0,0 c 0,-0.449 0.368,-0.818 0.817,-0.818 l 0,0 6.836,0 c 0.449,0 0.817,0.369 0.817,0.818 l 0,0 c 0,0.449 -0.368,0.817 -0.817,0.817 l 0,0 -6.836,0 z m -16.382,0 c -0.449,0 -0.817,-0.368 -0.817,-0.817 l 0,0 c 0,-0.449 0.368,-0.818 0.817,-0.818 l 0,0 6.836,0 c 0.449,0 0.817,0.369 0.817,0.818 l 0,0 c 0,0.449 -0.368,0.817 -0.817,0.817 l 0,0 -6.836,0 z m 44.074,-3.12 c -0.45,0 -0.817,-0.367 -0.817,-0.817 l 0,0 c 0,-0.449 0.367,-0.817 0.817,-0.817 l 0,0 11.987,0 c 0.45,0 0.817,0.368 0.817,0.817 l 0,0 c 0,0.45 -0.367,0.817 -0.817,0.817 l 0,0 -11.987,0 z m -15.038,0 c -0.449,0 -0.817,-0.367 -0.817,-0.817 l 0,0 c 0,-0.449 0.368,-0.817 0.817,-0.817 l 0,0 10.581,0 c 0.449,0 0.817,0.368 0.817,0.817 l 0,0 c 0,0.45 -0.368,0.817 -0.817,0.817 l 0,0 -10.581,0 z m -17.878,0 c -0.45,0 -0.817,-0.367 -0.817,-0.817 l 0,0 c 0,-0.449 0.367,-0.817 0.817,-0.817 l 0,0 12.06,0 c 0.449,0 0.817,0.368 0.817,0.817 l 0,0 c 0,0.45 -0.368,0.817 -0.817,0.817 l 0,0 -12.06,0 z m -11.158,0 c -0.449,0 -0.817,-0.367 -0.817,-0.817 l 0,0 c 0,-0.449 0.368,-0.817 0.817,-0.817 l 0,0 6.836,0 c 0.449,0 0.817,0.368 0.817,0.817 l 0,0 c 0,0.45 -0.368,0.817 -0.817,0.817 l 0,0 -6.836,0 z m 44.074,-3.118 c -0.45,0 -0.817,-0.368 -0.817,-0.817 l 0,0 c 0,-0.45 0.367,-0.817 0.817,-0.817 l 0,0 11.987,0 c 0.45,0 0.817,0.367 0.817,0.817 l 0,0 c 0,0.449 -0.367,0.817 -0.817,0.817 l 0,0 -11.987,0 z m -15.038,0 c -0.449,0 -0.817,-0.368 -0.817,-0.817 l 0,0 c 0,-0.45 0.368,-0.817 0.817,-0.817 l 0,0 10.581,0 c 0.449,0 0.817,0.367 0.817,0.817 l 0,0 c 0,0.449 -0.368,0.817 -0.817,0.817 l 0,0 -10.581,0 z m -6.352,0 c -0.45,0 -0.817,-0.368 -0.817,-0.817 l 0,0 c 0,-0.45 0.367,-0.817 0.817,-0.817 l 0,0 0.534,0 c 0.449,0 0.817,0.367 0.817,0.817 l 0,0 c 0,0.449 -0.368,0.817 -0.817,0.817 l 0,0 -0.534,0 z m -22.684,0 c -0.449,0 -0.817,-0.368 -0.817,-0.817 l 0,0 c 0,-0.45 0.368,-0.817 0.817,-0.817 l 0,0 6.836,0 c 0.449,0 0.817,0.367 0.817,0.817 l 0,0 c 0,0.449 -0.368,0.817 -0.817,0.817 l 0,0 -6.836,0 z m 44.074,-3.119 c -0.45,0 -0.817,-0.368 -0.817,-0.818 l 0,0 c 0,-0.449 0.367,-0.817 0.817,-0.817 l 0,0 11.987,0 c 0.45,0 0.817,0.368 0.817,0.817 l 0,0 c 0,0.45 -0.367,0.818 -0.817,0.818 l 0,0 -11.987,0 z m -10.878,0 c -0.449,0 -0.817,-0.368 -0.817,-0.818 l 0,0 c 0,-0.449 0.368,-0.817 0.817,-0.817 l 0,0 6.421,0 c 0.449,0 0.817,0.368 0.817,0.817 l 0,0 c 0,0.45 -0.368,0.818 -0.817,0.818 l 0,0 -6.421,0 z m -12.68,0 c -0.45,0 -0.817,-0.368 -0.817,-0.818 l 0,0 c 0,-0.449 0.367,-0.817 0.817,-0.817 l 0,0 2.702,0 c 0.449,0 0.817,0.368 0.817,0.817 l 0,0 c 0,0.45 -0.368,0.818 -0.817,0.818 l 0,0 -2.702,0 z m -20.516,0 c -0.449,0 -0.817,-0.368 -0.817,-0.818 l 0,0 c 0,-0.449 0.368,-0.817 0.817,-0.817 l 0,0 6.836,0 c 0.449,0 0.817,0.368 0.817,0.817 l 0,0 c 0,0.45 -0.368,0.818 -0.817,0.818 l 0,0 -6.836,0 z m 44.197,-3.119 c -0.45,0 -0.818,-0.368 -0.818,-0.817 l 0,0 c 0,-0.45 0.368,-0.817 0.818,-0.817 l 0,0 11.987,0 c 0.45,0 0.817,0.367 0.817,0.817 l 0,0 c 0,0.449 -0.367,0.817 -0.817,0.817 l 0,0 -11.987,0 z m -15.051,0 c -0.449,0 -0.817,-0.368 -0.817,-0.817 l 0,0 c 0,-0.45 0.368,-0.817 0.817,-0.817 l 0,0 10.58,0 c 0.449,0 0.818,0.367 0.818,0.817 l 0,0 c 0,0.449 -0.369,0.817 -0.818,0.817 l 0,0 -10.58,0 z m -11.57,0 c -0.45,0 -0.817,-0.368 -0.817,-0.817 l 0,0 c 0,-0.45 0.367,-0.817 0.817,-0.817 l 0,0 5.717,0 c 0.45,0 0.817,0.367 0.817,0.817 l 0,0 c 0,0.449 -0.367,0.817 -0.817,0.817 l 0,0 -5.717,0 z m -17.499,0 c -0.45,0 -0.818,-0.368 -0.818,-0.817 l 0,0 c 0,-0.45 0.368,-0.817 0.818,-0.817 l 0,0 6.834,0 c 0.45,0 0.818,0.367 0.818,0.817 l 0,0 c 0,0.449 -0.368,0.817 -0.818,0.817 l 0,0 -6.834,0 z m 44.12,-3.119 c -0.45,0 -0.818,-0.369 -0.818,-0.818 l 0,0 c 0,-0.449 0.368,-0.817 0.818,-0.817 l 0,0 11.987,0 c 0.45,0 0.817,0.368 0.817,0.817 l 0,0 c 0,0.449 -0.367,0.818 -0.817,0.818 l 0,0 -11.987,0 z m -12.39,0 c -0.449,0 -0.817,-0.369 -0.817,-0.818 l 0,0 c 0,-0.449 0.368,-0.817 0.817,-0.817 l 0,0 7.919,0 c 0.449,0 0.818,0.368 0.818,0.817 l 0,0 c 0,0.449 -0.369,0.818 -0.818,0.818 l 0,0 -7.919,0 z m -8.781,0 c -0.449,0 -0.817,-0.369 -0.817,-0.818 l 0,0 c 0,-0.449 0.368,-0.817 0.817,-0.817 l 0,0 0.267,0 c 0.45,0 0.817,0.368 0.817,0.817 l 0,0 c 0,0.449 -0.367,0.818 -0.817,0.818 l 0,0 -0.267,0 z m -22.949,0 c -0.45,0 -0.818,-0.369 -0.818,-0.818 l 0,0 c 0,-0.449 0.368,-0.817 0.818,-0.817 l 0,0 6.834,0 c 0.45,0 0.818,0.368 0.818,0.817 l 0,0 c 0,0.449 -0.368,0.818 -0.818,0.818 l 0,0 -6.834,0 z m 44.12,-3.119 c -0.45,0 -0.818,-0.368 -0.818,-0.818 l 0,0 c 0,-0.449 0.368,-0.817 0.818,-0.817 l 0,0 11.987,0 c 0.45,0 0.817,0.368 0.817,0.817 l 0,0 c 0,0.45 -0.367,0.818 -0.817,0.818 l 0,0 -11.987,0 z m -14.507,0 c -0.45,0 -0.818,-0.368 -0.818,-0.818 l 0,0 c 0,-0.449 0.368,-0.817 0.818,-0.817 l 0,0 10.036,0 c 0.449,0 0.818,0.368 0.818,0.817 l 0,0 c 0,0.45 -0.369,0.818 -0.818,0.818 l 0,0 -10.036,0 z m -17.064,0 c -0.449,0 -0.817,-0.368 -0.817,-0.818 l 0,0 c 0,-0.449 0.368,-0.817 0.817,-0.817 l 0,0 10.667,0 c 0.45,0 0.817,0.368 0.817,0.817 l 0,0 c 0,0.45 -0.367,0.818 -0.817,0.818 l 0,0 -10.667,0 z m -12.549,0 c -0.45,0 -0.818,-0.368 -0.818,-0.818 l 0,0 c 0,-0.449 0.368,-0.817 0.818,-0.817 l 0,0 6.834,0 c 0.45,0 0.818,0.368 0.818,0.817 l 0,0 c 0,0.45 -0.368,0.818 -0.818,0.818 l 0,0 -6.834,0 z m 44.12,-3.119 c -0.45,0 -0.818,-0.368 -0.818,-0.817 l 0,0 c 0,-0.45 0.368,-0.818 0.818,-0.818 l 0,0 11.987,0 c 0.45,0 0.817,0.368 0.817,0.818 l 0,0 c 0,0.449 -0.367,0.817 -0.817,0.817 l 0,0 -11.987,0 z m -15.051,0 c -0.449,0 -0.817,-0.368 -0.817,-0.817 l 0,0 c 0,-0.45 0.368,-0.818 0.817,-0.818 l 0,0 10.58,0 c 0.449,0 0.818,0.368 0.818,0.818 l 0,0 c 0,0.449 -0.369,0.817 -0.818,0.817 l 0,0 -10.58,0 z m -11.769,0 c -0.45,0 -0.818,-0.368 -0.818,-0.817 l 0,0 c 0,-0.45 0.368,-0.818 0.818,-0.818 l 0,0 5.916,0 c 0.45,0 0.817,0.368 0.817,0.818 l 0,0 c 0,0.449 -0.367,0.817 -0.817,0.817 l 0,0 -5.916,0 z m -17.3,0 c -0.45,0 -0.818,-0.368 -0.818,-0.817 l 0,0 c 0,-0.45 0.368,-0.818 0.818,-0.818 l 0,0 6.834,0 c 0.45,0 0.818,0.368 0.818,0.818 l 0,0 c 0,0.449 -0.368,0.817 -0.818,0.817 l 0,0 -6.834,0 z"
         id="path198"
         inkscape:connector-curvature="0" /></clipPath><clipPath
       clipPathUnits="userSpaceOnUse"
       id="clipPath204"><path
         d="m -32768,32767 65535,0 0,-65535 -65535,0 0,65535 z"
         id="path206"
         inkscape:connector-curvature="0" /></clipPath><linearGradient
       x1="0"
       y1="0"
       x2="1"
       y2="0"
       gradientUnits="userSpaceOnUse"
       gradientTransform="matrix(0,29.86697,29.86697,0,62.280125,56.211143)"
       spreadMethod="pad"
       id="linearGradient208"><stop
         style="stop-opacity:0.2;stop-color:#ffffff"
         offset="0"
         id="stop210" /><stop
         style="stop-opacity:1;stop-color:#ffffff"
         offset="1"
         id="stop212" /></linearGradient><mask
       maskUnits="userSpaceOnUse"
       x="0"
       y="0"
       width="1"
       height="1"
       id="mask214"><g
         id="g216"><g
           clip-path="url(#clipPath204)"
           id="g218"><g
             id="g220"><g
               id="g222"><path
                 d="m -32768,32767 65535,0 0,-65535 -65535,0 0,65535 z"
                 style="fill:url(#linearGradient208);stroke:none"
                 id="path224"
                 inkscape:connector-curvature="0" /></g></g></g></g></mask><linearGradient
       x1="0"
       y1="0"
       x2="1"
       y2="0"
       gradientUnits="userSpaceOnUse"
       gradientTransform="matrix(0,29.86697,29.86697,0,62.280125,56.211143)"
       spreadMethod="pad"
       id="linearGradient230"><stop
         style="stop-opacity:1;stop-color:#ffffff"
         offset="0"
         id="stop232" /><stop
         style="stop-opacity:1;stop-color:#ffffff"
         offset="1"
         id="stop234" /></linearGradient><clipPath
       clipPathUnits="userSpaceOnUse"
       id="clipPath242"><path
         d="m 0,146 124.56,0 0,-146 L 0,0 0,146 Z"
         id="path244"
         inkscape:connector-curvature="0" /></clipPath></defs><sodipodi:namedview
     pagecolor="#ffffff"
     bordercolor="#666666"
     borderopacity="1"
     objecttolerance="10"
     gridtolerance="10"
     guidetolerance="10"
     inkscape:pageopacity="0"
     inkscape:pageshadow="2"
     inkscape:window-width="2560"
     inkscape:window-height="1355"
     id="namedview4"
     showgrid="false"
     inkscape:zoom="3.6575825"
     inkscape:cx="-17.219871"
     inkscape:cy="75.282177"
     inkscape:window-x="-8"
     inkscape:window-y="-8"
     inkscape:window-maximized="1"
     inkscape:current-layer="layer3" /><g
     inkscape:groupmode="layer"
     id="layer4"
     inkscape:label="Background"
     style="display:inline"><g
       transform="matrix(1.25,0,0,-1.25,0,182.5)"
       clip-path="url(#clipPath16)"
       id="g14"
       style="fill:#669900"><g
         id="g20"
         style="fill:#669900"><g
           id="g22"
           style="fill:#669900"><path
             inkscape:connector-curvature="0"
             id="path30"
             style="fill:#669900;stroke:none"
             d="m 2.422,38.688 v 68.945 l 59.858,34.478 59.859,-34.478 V 38.688 L 62.28,4.211 Z" /></g></g></g></g><g
     id="g10"
     inkscape:groupmode="layer"
     inkscape:label="Border"
     transform="matrix(1.25,0,0,-1.25,0,182.5)"
     style="display:inline"><g
       id="g32"
       transform="translate(0,109.0332)"
       inkscape:export-filename="/Users/Luke/Downloads/title.png"
       inkscape:export-xdpi="300"
       inkscape:export-ydpi="300"
       style="fill:#99cc33"><path
         d="m 0,0 v -71.745 l 62.28,-35.872 62.28,35.872 V 0 L 62.28,35.872 Z M 4.844,-68.945 V -2.8 L 62.28,30.282 119.716,-2.8 V -68.945 L 62.28,-102.027 Z"
         style="fill:#99cc33;fill-opacity:1;fill-rule:nonzero;stroke:none"
         id="path34"
         inkscape:connector-curvature="0" /></g><circle
       style="opacity:1;vector-effect:none;fill:#cc0000;fill-opacity:1;fill-rule:evenodd;stroke:#ffffff;stroke-width:1.20944881;stroke-linecap:round;stroke-linejoin:round;stroke-miterlimit:4;stroke-dasharray:none;stroke-dashoffset:0;stroke-opacity:1;paint-order:normal"
       id="path934"
       cx="35.726681"
       cy="-81.042381"
       r="8.5063562"
       transform="scale(1,-1)" /><circle
       transform="scale(1,-1)"
       r="8.5063562"
       cy="-39.747887"
       cx="43.459751"
       id="circle936"
       style="opacity:1;vector-effect:none;fill:#ffcc00;fill-opacity:1;fill-rule:evenodd;stroke:#ffffff;stroke-width:1.20944881;stroke-linecap:round;stroke-linejoin:round;stroke-miterlimit:4;stroke-dasharray:none;stroke-dashoffset:0;stroke-opacity:1;paint-order:normal" /><circle
       style="opacity:1;vector-effect:none;fill:#ff9900;fill-opacity:1;fill-rule:evenodd;stroke:#ffffff;stroke-width:1.20944881;stroke-linecap:round;stroke-linejoin:round;stroke-miterlimit:4;stroke-dasharray:none;stroke-dashoffset:0;stroke-opacity:1;paint-order:normal"
       id="circle938"
       cx="27.065662"
       cy="-59.544491"
       r="8.5063562"
       transform="scale(1,-1)" /><circle
       style="opacity:1;vector-effect:none;fill:#003399;fill-opacity:1;fill-rule:evenodd;stroke:#ffffff;stroke-width:1.20944881;stroke-linecap:round;stroke-linejoin:round;stroke-miterlimit:4;stroke-dasharray:none;stroke-dashoffset:0;stroke-opacity:1;paint-order:normal"
       id="circle942"
       cx="88.002113"
       cy="-76.866524"
       r="8.5063562"
       transform="scale(1,-1)" /><circle
       transform="scale(1,-1)"
       r="8.5063562"
       cy="-48.408905"
       cx="92.641945"
       id="circle944"
       style="opacity:1;vector-effect:none;fill:#3366cc;fill-opacity:1;fill-rule:evenodd;stroke:#ffffff;stroke-width:1.20944881;stroke-linecap:round;stroke-linejoin:round;stroke-miterlimit:4;stroke-dasharray:none;stroke-dashoffset:0;stroke-opacity:1;paint-order:normal" /><path
       style="fill:#ffffff;stroke:#ffffff;stroke-width:0.80000001px;stroke-linecap:butt;stroke-linejoin:miter;stroke-opacity:1;marker-start:url(#marker1870);marker-end:url(#marker1870)"
       d="m 57.37924,42.067795 23.199148,4.330512"
       id="path948"
       inkscape:connector-curvature="0" /><path
       style="fill:none;stroke:#ffffff;stroke-width:0.80000001px;stroke-linecap:butt;stroke-linejoin:miter;stroke-opacity:1;marker-start:url(#DotM);marker-end:url(#DotM)"
       d="M 44.697033,72.690678 80.578387,55.059319"
       id="path950"
       inkscape:connector-curvature="0"
       sodipodi:nodetypes="cc" /><path
       style="fill:none;stroke:#ffffff;stroke-width:0.80000001px;stroke-linecap:butt;stroke-linejoin:miter;stroke-opacity:1;marker-start:url(#marker1508);marker-end:url(#marker1508)"
       d="M 40.0572,61.864404 75.62924,72.072033"
       id="path952"
       inkscape:connector-curvature="0"
       sodipodi:nodetypes="cc" /><path
       style="fill:none;stroke:#ffffff;stroke-width:0.80000001px;stroke-linecap:butt;stroke-linejoin:miter;stroke-opacity:1;marker-start:url(#marker1432);marker-end:url(#marker1432)"
       d="M 48.563554,80.269067 73.15466,79.341101"
       id="path954"
       inkscape:connector-curvature="0"
       sodipodi:nodetypes="cc" /><path
       style="fill:none;stroke:#ffffff;stroke-width:0.80000001px;stroke-linecap:butt;stroke-linejoin:miter;stroke-opacity:1;marker-start:url(#marker1584);marker-end:url(#marker1584)"
       d="M 40.98517,57.533898 78.25848,50.574155"
       id="path956"
       inkscape:connector-curvature="0"
       sodipodi:nodetypes="cc" /><path
       style="fill:none;stroke:#ffffff;stroke-width:0.80000001px;stroke-linecap:butt;stroke-linejoin:miter;stroke-opacity:1;marker-start:url(#marker1958);marker-end:url(#marker1958)"
       d="m 52.43008,46.707627 25.8284,20.569912"
       id="path958"
       inkscape:connector-curvature="0" /><text
       xml:space="preserve"
       style="font-style:normal;font-variant:normal;font-weight:600;font-stretch:normal;font-size:24.05182457px;line-height:1.25;font-family:Montserrat;-inkscape-font-specification:'Montserrat Semi-Bold';letter-spacing:0px;word-spacing:0px;fill:#ffffff;fill-opacity:1;stroke:#ffffff;stroke-width:0.71001267;stroke-miterlimit:4;stroke-dasharray:none"
       x="20.390142"
       y="-95.346176"
       id="text2736"
       transform="scale(1,-1)"><tspan
         sodipodi:role="line"
         id="tspan2734"
         x="20.390142"
         y="-95.346176"
         style="font-style:italic;font-variant:normal;font-weight:600;font-stretch:normal;font-family:Montserrat;-inkscape-font-specification:'Montserrat Semi-Bold Italic';fill:#ffffff;stroke:#ffffff;stroke-width:0.71001267;stroke-miterlimit:4;stroke-dasharray:none">BioCor</tspan></text>
</g><g
     inkscape:groupmode="layer"
     id="layer3"
     inkscape:label="Bioconductor"
     style="display:inline"><text
       xml:space="preserve"
       style="font-style:normal;font-variant:normal;font-weight:normal;font-stretch:normal;font-size:4.60153246px;line-height:1.25;font-family:'Cambria Math';-inkscape-font-specification:'Cambria Math';letter-spacing:0px;word-spacing:0px;fill:#ffffff;fill-opacity:1;stroke:none;stroke-width:0.28759578;"
       x="-17.742659"
       y="187.67949"
       id="text3076"
       transform="rotate(-30)"><tspan
         sodipodi:role="line"
         id="tspan3074"
         x="-17.742659"
         y="187.67949"
         style="font-style:normal;font-variant:normal;font-weight:bold;font-stretch:normal;font-family:Roboto;-inkscape-font-specification:'Roboto Bold';stroke-width:0.28759578;fill:#ffffff;">www.bioconductor.org</tspan></text>
</g><g
     inkscape:groupmode="layer"
     id="layer2"
     inkscape:label="Logo"
     style="display:inline" /><g
     inkscape:groupmode="layer"
     id="layer1"
     inkscape:label="Title"
     style="display:inline" /></svg>